<svg xmlns="http://www.w3.org/2000/svg" viewBox="0 0 702.06 92.69"><defs><style>.cls-1{fill:#fff;}</style></defs><title>logo</title><g id="Слой_2" data-name="Слой 2"><g id="Layer_1" data-name="Layer 1"><polygon class="cls-1" points="90.9 76.14 66.66 76.14 103.99 1.37 128.23 1.37 90.9 76.14"/><polygon class="cls-1" points="247.13 76.14 271.36 76.14 234.04 1.37 209.8 1.37 247.13 76.14"/><polygon class="cls-1" points="37.33 76.14 61.56 76.14 24.24 1.37 0 1.37 37.33 76.14"/><rect class="cls-1" x="182.81" y="1.37" width="21.88" height="74.76"/><path class="cls-1" d="M369.65,52.7,382,65.46a42,42,0,0,1-5.4,4.64,37.92,37.92,0,0,1-6.57,3.83,42,42,0,0,1-7.6,2.6,36.28,36.28,0,0,1-8.54,1,41.53,41.53,0,0,1-28.8-11.34,39.29,39.29,0,0,1-8.71-12.35,36.18,36.18,0,0,1-3.2-15.12,36,36,0,0,1,3.2-15.12,39.49,39.49,0,0,1,8.71-12.29A40.65,40.65,0,0,1,338,3a41.71,41.71,0,0,1,15.88-3,37.56,37.56,0,0,1,8.35.9,38.09,38.09,0,0,1,7.47,2.49,40.28,40.28,0,0,1,6.57,3.8A46.62,46.62,0,0,1,382,12.05L369.65,24.86a19.22,19.22,0,0,0-7-5.78,19.66,19.66,0,0,0-8.73-2A19.2,19.2,0,0,0,346,18.7a19.93,19.93,0,0,0-6.43,4.56,21.44,21.44,0,0,0-4.34,6.87,22.74,22.74,0,0,0-1.6,8.63,22.84,22.84,0,0,0,1.6,8.6,21.43,21.43,0,0,0,4.34,6.89A19.93,19.93,0,0,0,346,58.81a19,19,0,0,0,7.93,1.66,19.5,19.5,0,0,0,8.76-2.09A19.9,19.9,0,0,0,369.65,52.7Z"/><path class="cls-1" d="M369.65,52.7,382,65.46a42,42,0,0,1-5.4,4.64,37.92,37.92,0,0,1-6.57,3.83,42,42,0,0,1-7.6,2.6,36.28,36.28,0,0,1-8.54,1,41.53,41.53,0,0,1-28.8-11.34,39.29,39.29,0,0,1-8.71-12.35,36.18,36.18,0,0,1-3.2-15.12,36,36,0,0,1,3.2-15.12,39.49,39.49,0,0,1,8.71-12.29A40.65,40.65,0,0,1,338,3a41.71,41.71,0,0,1,15.88-3,37.56,37.56,0,0,1,8.35.9,38.09,38.09,0,0,1,7.47,2.49,40.28,40.28,0,0,1,6.57,3.8A46.62,46.62,0,0,1,382,12.05L369.65,24.86a19.22,19.22,0,0,0-7-5.78,19.66,19.66,0,0,0-8.73-2A19.2,19.2,0,0,0,346,18.7a19.93,19.93,0,0,0-6.43,4.56,21.44,21.44,0,0,0-4.34,6.87,22.74,22.74,0,0,0-1.6,8.63,22.84,22.84,0,0,0,1.6,8.6,21.43,21.43,0,0,0,4.34,6.89A19.93,19.93,0,0,0,346,58.81a19,19,0,0,0,7.93,1.66,19.5,19.5,0,0,0,8.76-2.09A19.9,19.9,0,0,0,369.65,52.7Z"/><rect class="cls-1" x="276.46" y="1.37" width="21.88" height="74.76"/><rect class="cls-1" x="140.88" y="1.37" width="21.88" height="74.76"/><rect class="cls-1" x="396.69" y="1.37" width="21.88" height="74.76"/><path class="cls-1" d="M486.8,55.89c.81-.09,1.78-.24,2.9-.43a10.77,10.77,0,0,0,2.76-.79A2.28,2.28,0,0,0,493.78,53a10.35,10.35,0,0,0,.25-2.18,7.32,7.32,0,0,0-2.11-5.41c-1.41-1.4-3.78-2.11-7.12-2.11a19.2,19.2,0,0,0-4.08.4,8.76,8.76,0,0,0-3.26,1.36,7.51,7.51,0,0,0-2.29,2.57A10.94,10.94,0,0,0,474,51.67h-4.37a13.33,13.33,0,0,1,1.51-5.62,11.32,11.32,0,0,1,3.32-3.8,13.91,13.91,0,0,1,4.73-2.14,22.81,22.81,0,0,1,5.69-.68,21.73,21.73,0,0,1,5.26.61,12.16,12.16,0,0,1,4.3,1.93,9,9,0,0,1,2.86,3.54,12.81,12.81,0,0,1,1,5.44V71.14c0,1.67.3,2.73.89,3.18s1.8.35,3.62-.32v3.37l-1.47.43a6.68,6.68,0,0,1-1.9.28,8.71,8.71,0,0,1-1.93-.21,3.32,3.32,0,0,1-1.72-.68,4.35,4.35,0,0,1-1-1.29,5.24,5.24,0,0,1-.53-1.65,11.4,11.4,0,0,1-.15-1.89,18.73,18.73,0,0,1-6.22,4.58,18.32,18.32,0,0,1-7.59,1.57,17,17,0,0,1-4.69-.64,11.28,11.28,0,0,1-4-2,9.67,9.67,0,0,1-2.72-3.33,10.16,10.16,0,0,1-1-4.68q0-9.45,13-11.17ZM494,58a21.21,21.21,0,0,1-5.51,1.5q-2.79.36-5.58.58a15.66,15.66,0,0,0-7.7,2.21A6.37,6.37,0,0,0,472.49,68a6.06,6.06,0,0,0,.68,3A6.21,6.21,0,0,0,475,73a7.36,7.36,0,0,0,2.57,1.21,11.13,11.13,0,0,0,3,.4,19.45,19.45,0,0,0,5-.65,13.44,13.44,0,0,0,4.34-2,10.11,10.11,0,0,0,3-3.36A9.75,9.75,0,0,0,494,63.84Z"/><path class="cls-1" d="M538.2,40.43h4.3v33.5a32.92,32.92,0,0,1-.76,7.12,15.3,15.3,0,0,1-2.68,6,13.51,13.51,0,0,1-5.3,4.12,24.68,24.68,0,0,1-15.67.5,15.15,15.15,0,0,1-4.8-2.62,11.31,11.31,0,0,1-2.83-3.47,8.77,8.77,0,0,1-1-3.54H514a8.51,8.51,0,0,0,1.58,3.4,8.05,8.05,0,0,0,2.54,2.08,10.83,10.83,0,0,0,3.26,1,23.56,23.56,0,0,0,3.72.29,14.23,14.23,0,0,0,7-1.5,10.31,10.31,0,0,0,4-3.94,15,15,0,0,0,1.76-5.51,42.21,42.21,0,0,0,.32-6.3,13.28,13.28,0,0,1-5.69,5.19A17.09,17.09,0,0,1,525,78.51a15.7,15.7,0,0,1-7.34-1.61,15,15,0,0,1-5.15-4.29,18.51,18.51,0,0,1-3.05-6.27,27.32,27.32,0,0,1-1-7.44,30.39,30.39,0,0,1,.93-7.66,16.73,16.73,0,0,1,3-6.19,14.17,14.17,0,0,1,5.19-4.12,17.73,17.73,0,0,1,7.66-1.5,14.19,14.19,0,0,1,3.65.5,17.15,17.15,0,0,1,3.62,1.43,14.11,14.11,0,0,1,3.22,2.36,12.7,12.7,0,0,1,2.4,3.22h.14Zm0,18.68a22.78,22.78,0,0,0-.82-6.26,15.34,15.34,0,0,0-2.4-5A11.23,11.23,0,0,0,531,44.51a11.55,11.55,0,0,0-5.37-1.22,12.86,12.86,0,0,0-5,1,11.45,11.45,0,0,0-4,2.83A13.17,13.17,0,0,0,514,51.63a18.12,18.12,0,0,0-1,6.19,24.27,24.27,0,0,0,.58,6.55,15.54,15.54,0,0,0,2.29,5.34,11.36,11.36,0,0,0,4,3.61,11.92,11.92,0,0,0,5.8,1.33,10.85,10.85,0,0,0,5.26-1.26A12,12,0,0,0,534.87,70a15.27,15.27,0,0,0,2.47-4.94A20.54,20.54,0,0,0,538.2,59.11Z"/><path class="cls-1" d="M556,60a19.91,19.91,0,0,0,.79,5.69,13.69,13.69,0,0,0,2.33,4.66,11.21,11.21,0,0,0,3.9,3.15,12.1,12.1,0,0,0,5.44,1.18,11.86,11.86,0,0,0,7.23-2.22,10.72,10.72,0,0,0,4-6.3h4.79a22.83,22.83,0,0,1-2.07,4.9A15.36,15.36,0,0,1,579.15,75a14,14,0,0,1-4.59,2.61,18.5,18.5,0,0,1-6.15.93,18,18,0,0,1-7.66-1.5,14.39,14.39,0,0,1-5.3-4.12,17.44,17.44,0,0,1-3.08-6.15,27.92,27.92,0,0,1-1-7.63,24.53,24.53,0,0,1,1.18-7.66,19.53,19.53,0,0,1,3.37-6.26A15.48,15.48,0,0,1,561.25,41a16,16,0,0,1,7.16-1.54q7.65,0,12,5.26T584.73,60Zm24.2-3.58a17.09,17.09,0,0,0-.75-5.12,12.34,12.34,0,0,0-2.22-4.15,10.55,10.55,0,0,0-3.69-2.79,11.88,11.88,0,0,0-5.08-1,11.27,11.27,0,0,0-5,1.08,11.43,11.43,0,0,0-3.72,2.86,14.32,14.32,0,0,0-2.47,4.15,19.34,19.34,0,0,0-1.22,5Z"/><path class="cls-1" d="M597.4,77.51h-4.3V40.43h4.3v5.15a27.12,27.12,0,0,1,5.33-4.43,12.25,12.25,0,0,1,6.62-1.72,16.83,16.83,0,0,1,6.37,1.18,10.87,10.87,0,0,1,4.94,4.11,9.13,9.13,0,0,1,1.61,4.12,36.78,36.78,0,0,1,.26,4.4V77.51h-4.3V53.31q0-5-2.22-7.51t-7.37-2.51a10.54,10.54,0,0,0-3.65.61,11.47,11.47,0,0,0-3,1.61,10.71,10.71,0,0,0-3.69,5,13.91,13.91,0,0,0-.79,3.44c-.09,1.1-.14,2.29-.14,3.58Z"/><path class="cls-1" d="M659.18,52.1a12.52,12.52,0,0,0-3.94-6.48,10.7,10.7,0,0,0-7.09-2.33,11.2,11.2,0,0,0-5.65,1.36,11.37,11.37,0,0,0-3.87,3.62,16.41,16.41,0,0,0-2.22,5.08A23,23,0,0,0,635.7,59a23.77,23.77,0,0,0,.68,5.73,15.29,15.29,0,0,0,2.18,5,11.15,11.15,0,0,0,3.87,3.54,11.44,11.44,0,0,0,5.72,1.33,11,11,0,0,0,7.7-2.65,12.31,12.31,0,0,0,3.68-7.3h4.59a21.8,21.8,0,0,1-1.83,5.62,14.71,14.71,0,0,1-3.22,4.36,13.85,13.85,0,0,1-4.69,2.83,20.13,20.13,0,0,1-13.89-.5,14.35,14.35,0,0,1-5.29-4.12,17.22,17.22,0,0,1-3.08-6.19,28.2,28.2,0,0,1-1-7.66,24.62,24.62,0,0,1,1.1-7.41,19.33,19.33,0,0,1,3.26-6.26A15.7,15.7,0,0,1,640.82,41a15.92,15.92,0,0,1,7.33-1.61q6.45,0,10.42,3.08t5,9.59Z"/><path class="cls-1" d="M672.42,87.53l1.75.29A12.32,12.32,0,0,0,676,88a4,4,0,0,0,2.93-1.14,9.55,9.55,0,0,0,1.9-2.75,22.92,22.92,0,0,0,1.25-3.36,15.77,15.77,0,0,1,1.15-3L668.84,40.43h4.8l11.88,31.85L697.4,40.43h4.66L688.24,77q-1.29,3.51-2.47,6.3a28.68,28.68,0,0,1-2.5,4.76,10.7,10.7,0,0,1-2.94,3,6.92,6.92,0,0,1-3.83,1,15.27,15.27,0,0,1-2.18-.14,17,17,0,0,1-1.9-.36Z"/><path class="cls-1" d="M450.51,66.39a11.12,11.12,0,1,1-11.12-11.12A11.12,11.12,0,0,1,450.51,66.39Zm-2.13,0a9,9,0,1,0-9,9A9,9,0,0,0,448.38,66.39Zm-6.23,1,2.42,4h-3.18l-2.09-3.74h-1.46V71.4H435.1V61.1h5.43a4,4,0,0,1,2.75.86,3,3,0,0,1,1,2.41,3.22,3.22,0,0,1-.55,1.92A2.91,2.91,0,0,1,442.15,67.4Zm-.66-3a1.1,1.1,0,0,0-.36-.87,1.57,1.57,0,0,0-1-.31h-2.25v2.37h2.25a1.6,1.6,0,0,0,1.05-.31A1.14,1.14,0,0,0,441.49,64.37Z"/></g></g></svg>